# 3ds Max Wavefront OBJ Exporter v0.99 - (c)2007 guruware
# File Created: 07.10.2024 23:09:06

mtllib voiture.mtl

#
# object Box134
#

v  -4.5772 0.0000 -5.2281
v  4.5772 0.0000 -5.2281
v  4.5772 0.0000 5.2281
v  -4.5772 0.0000 5.2281
v  -3.8062 9.5455 5.2281
v  3.8062 9.5455 5.2281
v  3.8062 9.5455 -5.2281
v  -3.8062 9.5455 -5.2281
v  4.5772 4.7908 5.2281
v  -4.5772 4.7908 5.2281
v  10.7252 0.0000 5.2281
v  10.7252 0.0000 -5.2281
v  10.7252 4.0197 -5.2281
v  10.7252 4.0197 5.2281
v  -4.5772 4.7908 -5.2281
v  4.5772 4.7908 -5.2281
v  -10.9100 0.0000 -5.2281
v  -10.9100 0.0000 5.2281
v  -10.9100 4.0197 5.2281
v  -10.9100 4.0197 -5.2281
v  9.9541 4.7908 5.2281
v  9.9541 4.7908 -5.2281
v  -10.1390 4.7908 -5.2281
v  -10.1390 4.7908 5.2281
v  10.4901 4.5557 5.2281
v  -10.6749 4.5557 5.2281
v  -10.6749 4.5557 -5.2281
v  10.4901 4.5557 -5.2281
v  4.5772 8.7744 5.2281
v  4.3421 9.3104 5.2281
v  -4.3421 9.3104 5.2281
v  -4.5772 8.7744 5.2281
v  4.5772 8.7744 -5.2281
v  -4.5772 8.7744 -5.2281
v  -4.3421 9.3104 -5.2281
v  4.3421 9.3104 -5.2281
v  8.4263 2.0953 -4.9170
v  6.3311 2.9632 -4.9170
v  4.2358 2.0953 -4.9170
v  9.2942 0.0000 -4.9170
v  8.4263 -2.0953 -4.9170
v  8.4263 -2.0953 -6.2283
v  9.2942 -0.0000 -6.2283
v  6.3311 -2.9632 -4.9170
v  6.3311 -2.9632 -6.2283
v  4.2358 -2.0953 -4.9170
v  4.2358 -2.0953 -6.2283
v  3.3679 0.0000 -4.9170
v  3.3679 0.0000 -6.2283
v  4.2358 2.0953 -6.2283
v  6.3311 2.9632 -6.2283
v  8.4263 2.0953 -6.2283
v  4.2231 5.6225 -5.6252
v  4.2231 5.6225 -4.7617
v  0.0108 5.6225 -4.7618
v  0.0108 5.6225 -5.6252
v  2.8330 8.4860 -5.6252
v  1.4009 8.4860 -5.6252
v  1.4009 8.4860 -4.7617
v  2.8330 8.4860 -4.7617
v  0.0108 7.0959 -5.6252
v  4.2231 7.0959 -5.6252
v  0.0108 7.0959 -4.7618
v  4.2231 7.0959 -4.7617
v  0.5381 7.9587 -5.6252
v  0.5381 7.9587 -4.7618
v  3.6958 7.9587 -4.7617
v  3.6958 7.9587 -5.6252
v  -4.2289 2.0953 -4.9170
v  -6.3242 2.9632 -4.9170
v  -8.4195 2.0953 -4.9170
v  -3.3610 0.0000 -4.9170
v  -4.2289 -2.0953 -4.9170
v  -4.2289 -2.0953 -6.2283
v  -3.3610 -0.0000 -6.2283
v  -6.3242 -2.9632 -4.9170
v  -6.3242 -2.9632 -6.2283
v  -8.4195 -2.0953 -4.9170
v  -8.4195 -2.0953 -6.2283
v  -9.2874 0.0000 -4.9170
v  -9.2874 0.0000 -6.2283
v  -8.4195 2.0953 -6.2283
v  -6.3242 2.9632 -6.2283
v  -4.2289 2.0953 -6.2283
v  -0.1962 5.6225 -5.6252
v  -0.1962 5.6225 -4.7617
v  -4.4085 5.6225 -4.7618
v  -4.4085 5.6225 -5.6252
v  -1.5863 8.4860 -5.6252
v  -3.0184 8.4860 -5.6252
v  -3.0184 8.4860 -4.7617
v  -1.5863 8.4860 -4.7617
v  -4.4085 7.0959 -5.6252
v  -0.1962 7.0959 -5.6252
v  -4.4085 7.0959 -4.7618
v  -0.1962 7.0959 -4.7617
v  -3.8812 7.9587 -5.6252
v  -3.8812 7.9587 -4.7618
v  -0.7235 7.9587 -4.7617
v  -0.7235 7.9587 -5.6252
v  0.0108 5.6225 5.6356
v  0.0108 5.6225 4.7721
v  4.2231 5.6225 4.7721
v  4.2231 5.6225 5.6356
v  1.4009 8.4860 5.6356
v  2.8330 8.4860 5.6356
v  2.8330 8.4860 4.7721
v  1.4009 8.4860 4.7721
v  4.2231 7.0959 5.6356
v  0.0108 7.0959 5.6356
v  4.2231 7.0959 4.7721
v  0.0108 7.0959 4.7721
v  3.6958 7.9587 5.6356
v  3.6958 7.9587 4.7721
v  0.5381 7.9587 4.7721
v  0.5381 7.9587 5.6356
v  -4.4085 5.6225 5.6356
v  -4.4085 5.6225 4.7721
v  -0.1962 5.6225 4.7721
v  -0.1962 5.6225 5.6356
v  -3.0184 8.4860 5.6356
v  -1.5863 8.4860 5.6356
v  -1.5863 8.4860 4.7721
v  -3.0184 8.4860 4.7721
v  -0.1962 7.0959 5.6356
v  -4.4085 7.0959 5.6356
v  -0.1962 7.0959 4.7721
v  -4.4085 7.0959 4.7721
v  -0.7235 7.9587 5.6356
v  -0.7235 7.9587 4.7721
v  -3.8812 7.9587 4.7721
v  -3.8812 7.9587 5.6356
v  -4.2289 2.0953 5.7996
v  -6.3242 2.9632 5.7996
v  -8.4195 2.0953 5.7996
v  -3.3610 0.0000 5.7996
v  -4.2289 -2.0953 5.7996
v  -4.2289 -2.0953 4.4882
v  -3.3610 -0.0000 4.4882
v  -6.3242 -2.9632 5.7996
v  -6.3242 -2.9632 4.4882
v  -8.4195 -2.0953 5.7996
v  -8.4195 -2.0953 4.4882
v  -9.2874 0.0000 5.7996
v  -9.2874 0.0000 4.4882
v  -8.4195 2.0953 4.4882
v  -6.3242 2.9632 4.4882
v  -4.2289 2.0953 4.4882
v  8.4263 2.0953 5.7996
v  6.3311 2.9632 5.7996
v  4.2358 2.0953 5.7996
v  9.2942 0.0000 5.7996
v  8.4263 -2.0953 5.7996
v  8.4263 -2.0953 4.4882
v  9.2942 -0.0000 4.4882
v  6.3311 -2.9632 5.7996
v  6.3311 -2.9632 4.4882
v  4.2358 -2.0953 5.7996
v  4.2358 -2.0953 4.4882
v  3.3679 0.0000 5.7996
v  3.3679 0.0000 4.4882
v  4.2358 2.0953 4.4882
v  6.3311 2.9632 4.4882
v  8.4263 2.0953 4.4882
# 164 vertices

vn 0.0000 -0.7071 -0.7071
vn 0.0000 -0.7071 0.7071
vn -0.1535 0.7321 0.6637
vn 0.1535 0.7321 0.6637
vn 0.1535 0.7321 -0.6637
vn -0.1535 0.7321 -0.6637
vn 0.3015 0.3015 0.9045
vn -0.3015 0.3015 0.9045
vn 0.5774 -0.5774 0.5774
vn 0.5774 -0.5774 -0.5774
vn 0.7321 0.1535 -0.6637
vn 0.7321 0.1535 0.6637
vn -0.3015 0.3015 -0.9045
vn 0.3015 0.3015 -0.9045
vn -0.5774 -0.5774 -0.5774
vn -0.5774 -0.5774 0.5774
vn -0.7321 0.1535 0.6637
vn -0.7321 0.1535 -0.6637
vn 0.5470 0.5470 0.6337
vn -0.5470 0.5470 0.6337
vn -0.5470 0.5470 -0.6337
vn 0.5470 0.5470 -0.6337
vn 0.5490 0.5490 0.6303
vn -0.0000 0.7764 0.6303
vn -0.5490 0.5490 0.6303
vn 0.7764 0.0000 0.6303
vn 0.5490 -0.5490 0.6303
vn 0.5490 -0.5490 -0.6303
vn 0.7764 -0.0000 -0.6303
vn 0.0000 -0.7764 0.6303
vn 0.0000 -0.7764 -0.6303
vn -0.5490 -0.5490 0.6303
vn -0.5490 -0.5490 -0.6303
vn -0.7764 0.0000 0.6303
vn -0.7764 -0.0000 -0.6303
vn -0.5490 0.5490 -0.6303
vn -0.0000 0.7764 -0.6303
vn 0.5490 0.5490 -0.6303
vn 0.5774 -0.5774 -0.5773
vn 0.7071 -0.7071 0.0000
vn -0.7071 -0.7071 -0.0000
vn -0.5773 -0.5774 -0.5774
vn 0.2056 0.7308 -0.6509
vn -0.2056 0.7308 -0.6509
vn -0.2708 0.9626 -0.0000
vn 0.2708 0.9626 0.0000
vn -0.7307 0.2056 -0.6510
vn 0.7308 0.2056 -0.6509
vn -0.9626 0.2709 -0.0000
vn 0.9626 0.2708 0.0000
vn -0.5326 0.5325 -0.6579
vn -0.7071 0.7071 -0.0000
vn 0.7071 0.7071 0.0000
vn 0.5325 0.5325 -0.6579
vn -0.5489 -0.5490 0.6303
vn -0.5490 -0.5490 -0.6302
vn -0.7764 -0.0000 0.6302
vn -0.7763 0.0000 -0.6303
vn -0.7308 0.2056 -0.6509
vn -0.9626 0.2708 -0.0000
vn -0.5325 0.5325 -0.6579
vn 0.7071 -0.7071 -0.0000
vn -0.2056 0.7308 0.6509
vn 0.2056 0.7308 0.6509
vn 0.2708 0.9626 -0.0000
vn 0.7308 0.2056 0.6509
vn -0.7308 0.2056 0.6509
vn 0.9626 0.2708 -0.0000
vn 0.5325 0.5325 0.6579
vn 0.7071 0.7071 -0.0000
vn -0.5325 0.5325 0.6579
# 71 vertex normals

vt 0.7522 1.0000 0.0000
vt 0.2478 1.0000 0.0000
vt 0.2478 0.0000 0.0000
vt 0.7522 0.0000 0.0000
vt 0.2903 0.0000 0.0000
vt 0.7097 0.0000 0.0000
vt 0.7097 1.0000 0.0000
vt 0.2903 1.0000 0.0000
vt 0.0000 0.0000 0.0000
vt 1.0000 0.0000 0.0000
vt 1.0000 0.8391 0.0000
vt 0.0000 0.8391 0.0000
vt 0.0000 1.0000 0.0000
vt 1.0000 1.0000 0.0000
vt 0.9689 0.0000 0.0000
vt 0.9689 1.0000 0.0000
vt 0.0302 1.0000 0.0000
vt 0.0302 0.0000 0.0000
vt 0.9698 1.0000 0.0000
vt 0.0311 1.0000 0.0000
vt 0.4786 0.0000 0.4142
vt 0.2197 0.0000 -0.4142
vt 0.1250 0.0000 -1.0000
vt 0.7500 0.0000 1.0000
vt 0.8750 0.0000 1.0000
vt 0.8750 1.0000 1.0000
vt 0.7500 1.0000 1.0000
vt -0.1250 0.0000 1.0000
vt 0.0000 0.0000 1.0000
vt 0.0000 1.0000 1.0000
vt -0.1250 1.0000 1.0000
vt 0.1250 0.0000 1.0000
vt 0.1250 1.0000 1.0000
vt 0.2500 0.0000 1.0000
vt 0.2500 1.0000 1.0000
vt 0.3750 0.0000 1.0000
vt 0.3750 1.0000 1.0000
vt 0.5000 0.0000 1.0000
vt 0.5000 1.0000 1.0000
vt 0.6250 0.0000 1.0000
vt 0.6250 1.0000 1.0000
vt 0.1250 1.0000 -1.0000
vt 0.2197 1.0000 -0.4142
vt 0.2500 0.0000 -1.0000
vt 0.5214 0.0000 -0.4142
vt 0.7803 0.0000 0.4142
vt 0.2500 1.0000 -1.0000
vt 0.7803 1.0000 0.4142
vt 0.5214 1.0000 -0.4142
vt 0.3300 0.0000 0.0000
vt 0.6700 0.0000 0.0000
vt 0.6700 1.0000 0.0000
vt 0.3300 1.0000 0.0000
vt 1.0000 0.8169 0.0000
vt 0.0000 0.8169 0.0000
# 55 texture coords

o Box134
g Box134
usemtl wire_153228214
s 1
f 1/1/1 2/2/1 3/3/2 4/4/2 
f 5/5/3 6/6/4 7/7/5 8/8/6 
f 4/3/2 3/4/2 9/1/7 10/2/8 
f 11/9/9 12/10/10 13/11/11 14/12/12 
f 2/3/1 1/4/1 15/1/13 16/2/14 
f 17/9/15 18/10/16 19/11/17 20/12/18 
f 2/2/1 12/13/10 11/9/9 3/3/2 
f 4/4/2 18/10/16 17/14/15 1/1/1 
f 9/4/7 21/15/4 22/16/5 16/1/14 
f 15/2/13 23/17/6 24/18/3 10/3/8 
f 3/4/2 11/10/9 14/11/12 25/14/19 21/16/4 9/1/7 
f 10/2/8 24/17/3 26/13/20 19/12/17 18/9/16 4/3/2 
f 1/4/1 17/10/15 20/11/18 27/14/21 23/19/6 15/1/13 
f 16/2/14 22/20/5 28/13/22 13/12/11 12/9/10 2/3/1 
f 10/3/8 9/4/7 29/4/12 30/4/19 6/6/4 5/5/3 31/3/20 32/3/17 
f 9/4/7 16/1/14 33/1/11 29/4/12 
f 16/1/14 15/2/13 34/2/18 35/2/21 8/8/6 7/7/5 36/1/22 33/1/11 
f 15/2/13 10/3/8 32/3/17 34/2/18 
f 7/7/5 6/6/4 30/4/19 36/1/22 
f 5/5/3 8/8/6 35/2/21 31/3/20 
f 14/12/12 13/11/11 28/14/22 25/13/19 
f 20/12/18 19/11/17 26/14/20 27/13/21 
f 22/16/5 21/15/4 25/10/19 28/14/22 
f 24/18/3 23/17/6 27/13/21 26/9/20 
f 29/4/12 33/1/11 36/1/22 30/4/19 
f 34/2/18 32/3/17 31/3/20 35/2/21 
f 37/21/23 38/22/24 39/23/25 40/24/26 
f 40/24/26 41/25/27 42/26/28 43/27/29 
f 41/28/27 44/29/30 45/30/31 42/31/28 
f 44/29/30 46/32/32 47/33/33 45/30/31 
f 46/32/32 48/34/34 49/35/35 47/33/33 
f 48/34/34 39/36/25 50/37/36 49/35/35 
f 39/36/25 38/38/24 51/39/37 50/37/36 
f 38/38/24 37/40/23 52/41/38 51/39/37 
f 37/40/23 40/24/26 43/27/29 52/41/38 
f 52/41/38 43/27/29 50/42/36 51/43/37 
f 39/23/25 48/44/34 41/25/27 40/24/26 
f 48/44/34 46/45/32 44/46/30 41/25/27 
f 43/27/29 42/26/28 49/47/35 50/42/36 
f 42/26/28 45/48/31 47/49/33 49/47/35 
f 53/10/39 54/14/40 55/13/41 56/9/42 
f 57/50/43 58/51/44 59/52/45 60/53/46 
f 53/9/39 56/10/42 61/54/47 62/55/48 
f 56/9/42 55/10/41 63/54/49 61/55/47 
f 54/9/40 53/10/39 62/54/48 64/55/50 
f 59/52/45 58/51/44 65/10/51 66/14/52 
f 57/50/43 60/53/46 67/13/53 68/9/54 
f 61/55/47 63/54/49 66/14/52 65/13/51 
f 64/55/50 62/54/48 68/14/54 67/13/53 
f 65/14/51 58/52/44 57/53/43 68/13/54 
f 61/54/47 65/14/51 68/13/54 62/55/48 
f 69/21/23 70/22/24 71/23/25 72/24/26 
f 72/24/26 73/25/27 74/26/28 75/27/29 
f 73/28/27 76/29/30 77/30/31 74/31/28 
f 76/29/30 78/32/55 79/33/56 77/30/31 
f 78/32/55 80/34/57 81/35/58 79/33/56 
f 80/34/57 71/36/25 82/37/36 81/35/58 
f 71/36/25 70/38/24 83/39/37 82/37/36 
f 70/38/24 69/40/23 84/41/38 83/39/37 
f 69/40/23 72/24/26 75/27/29 84/41/38 
f 84/41/38 75/27/29 82/42/36 83/43/37 
f 71/23/25 80/44/57 73/25/27 72/24/26 
f 80/44/57 78/45/55 76/46/30 73/25/27 
f 75/27/29 74/26/28 81/47/58 82/42/36 
f 74/26/28 77/48/31 79/49/56 81/47/58 
f 85/10/39 86/14/40 87/13/41 88/9/42 
f 89/50/43 90/51/44 91/52/45 92/53/46 
f 85/9/39 88/10/42 93/54/59 94/55/48 
f 88/9/42 87/10/41 95/54/60 93/55/59 
f 86/9/40 85/10/39 94/54/48 96/55/50 
f 91/52/45 90/51/44 97/10/61 98/14/52 
f 89/50/43 92/53/46 99/13/53 100/9/54 
f 93/55/59 95/54/60 98/14/52 97/13/61 
f 96/55/50 94/54/48 100/14/54 99/13/53 
f 97/14/61 90/52/44 89/53/43 100/13/54 
f 93/54/59 97/14/61 100/13/54 94/55/48 
f 101/10/16 102/14/41 103/13/62 104/9/9 
f 105/50/63 106/51/64 107/52/65 108/53/45 
f 101/9/16 104/10/9 109/54/66 110/55/67 
f 104/9/9 103/10/62 111/54/68 109/55/66 
f 102/9/41 101/10/16 110/54/67 112/55/60 
f 107/52/65 106/51/64 113/10/69 114/14/70 
f 105/50/63 108/53/45 115/13/52 116/9/71 
f 109/55/66 111/54/68 114/14/70 113/13/69 
f 112/55/60 110/54/67 116/14/71 115/13/52 
f 113/14/69 106/52/64 105/53/63 116/13/71 
f 109/54/66 113/14/69 116/13/71 110/55/67 
f 117/10/16 118/14/41 119/13/62 120/9/9 
f 121/50/63 122/51/64 123/52/65 124/53/45 
f 117/9/16 120/10/9 125/54/66 126/55/67 
f 120/9/9 119/10/62 127/54/68 125/55/66 
f 118/9/41 117/10/16 126/54/67 128/55/60 
f 123/52/65 122/51/64 129/10/69 130/14/70 
f 121/50/63 124/53/45 131/13/52 132/9/71 
f 125/55/66 127/54/68 130/14/70 129/13/69 
f 128/55/60 126/54/67 132/14/71 131/13/52 
f 129/14/69 122/52/64 121/53/63 132/13/71 
f 125/54/66 129/14/69 132/13/71 126/55/67 
f 133/21/23 134/22/24 135/23/25 136/24/26 
f 136/24/26 137/25/27 138/26/28 139/27/29 
f 137/28/27 140/29/30 141/30/31 138/31/28 
f 140/29/30 142/32/55 143/33/56 141/30/31 
f 142/32/55 144/34/57 145/35/58 143/33/56 
f 144/34/57 135/36/25 146/37/36 145/35/58 
f 135/36/25 134/38/24 147/39/37 146/37/36 
f 134/38/24 133/40/23 148/41/38 147/39/37 
f 133/40/23 136/24/26 139/27/29 148/41/38 
f 148/41/38 139/27/29 146/42/36 147/43/37 
f 135/23/25 144/44/57 137/25/27 136/24/26 
f 144/44/57 142/45/55 140/46/30 137/25/27 
f 139/27/29 138/26/28 145/47/58 146/42/36 
f 138/26/28 141/48/31 143/49/56 145/47/58 
f 149/21/23 150/22/24 151/23/25 152/24/26 
f 152/24/26 153/25/27 154/26/28 155/27/29 
f 153/28/27 156/29/30 157/30/31 154/31/28 
f 156/29/30 158/32/32 159/33/33 157/30/31 
f 158/32/32 160/34/34 161/35/35 159/33/33 
f 160/34/34 151/36/25 162/37/36 161/35/35 
f 151/36/25 150/38/24 163/39/37 162/37/36 
f 150/38/24 149/40/23 164/41/38 163/39/37 
f 149/40/23 152/24/26 155/27/29 164/41/38 
f 164/41/38 155/27/29 162/42/36 163/43/37 
f 151/23/25 160/44/34 153/25/27 152/24/26 
f 160/44/34 158/45/32 156/46/30 153/25/27 
f 155/27/29 154/26/28 161/47/35 162/42/36 
f 154/26/28 157/48/31 159/49/33 161/47/35 
# 126 polygons

